<mxfile host="app.diagrams.net" modified="2023-09-03T04:21:27.979Z" agent="Mozilla/5.0 (Macintosh; Intel Mac OS X 10_15_7) AppleWebKit/605.1.15 (KHTML, like Gecko) Version/16.6 Safari/605.1.15" version="21.6.5" etag="ZPFyJtMsVK4aGdJ3I7H6" type="github">
  <diagram name="Page-1" id="bj8hNiLYqbLRbus2RRiZ">
    <mxGraphModel>
      <root>
        <mxCell id="0" />
        <mxCell id="1" parent="0" />
      </root>
    </mxGraphModel>
  </diagram>
</mxfile>
